<svg class="qodef-svg--separator-circle-small" xmlns="http://www.w3.org/2000/svg" width="6" height="6" viewBox="0 0 6 6"><path d="M1.23,9.188a2.954,2.954,0,0,1,.107-.8,3.053,3.053,0,0,1,.3-.718,2.959,2.959,0,0,1,.467-.607A3,3,0,0,1,3.43,6.293a3.012,3.012,0,0,1,1.593,0,3,3,0,0,1,.718.3,3.066,3.066,0,0,1,.608.469A2.984,2.984,0,0,1,7.23,9.188a2.947,2.947,0,0,1-.107.8,3.011,3.011,0,0,1-.3.716,3.009,3.009,0,0,1-1.08,1.074,3.049,3.049,0,0,1-.718.3,3.02,3.02,0,0,1-1.6,0,3.058,3.058,0,0,1-.716-.3A2.971,2.971,0,0,1,1.639,10.7a3.053,3.053,0,0,1-.3-.718A2.954,2.954,0,0,1,1.23,9.188Zm.5,0a2.433,2.433,0,0,0,.2.973,2.5,2.5,0,0,0,1.326,1.327,2.428,2.428,0,0,0,.972.2,2.481,2.481,0,0,0,.665-.089A2.5,2.5,0,0,0,6,10.956a2.467,2.467,0,0,0,.392-.506,2.506,2.506,0,0,0,.253-.6,2.5,2.5,0,0,0-.253-1.928A2.542,2.542,0,0,0,6,7.418a2.5,2.5,0,0,0-1.769-.73,2.428,2.428,0,0,0-.972.2,2.5,2.5,0,0,0-.792.536,2.545,2.545,0,0,0-.534.8A2.433,2.433,0,0,0,1.732,9.188Z" transform="translate(-1.23 -6.186)" fill="currentColor"></path></svg>