<svg xmlns="http://www.w3.org/2000/svg" width="16.298" height="10.293" viewBox="0 0 16.298 10.293">
<path d="M15.008-8.449H1.29a1.243,1.243,0,0,0-.913.377,1.234,1.234,0,0,0-.377.9V.554a1.243,1.243,0,0,0,.377.913,1.243,1.243,0,0,0,.913.377H15.008a1.243,1.243,0,0,0,.913-.377A1.243,1.243,0,0,0,16.3.554V-7.167a1.234,1.234,0,0,0-.377-.9A1.243,1.243,0,0,0,15.008-8.449Zm0,.854a.194.194,0,0,1,.038,0,.194.194,0,0,0,.038,0l-6.457,4.3a.864.864,0,0,1-.482.126.823.823,0,0,1-.473-.126l-6.457-4.3a.138.138,0,0,0,.034,0,.176.176,0,0,1,.042,0Zm0,8.576H1.29A.421.421,0,0,1,.98.856a.411.411,0,0,1-.126-.3V-6.79l6.34,4.221a1.517,1.517,0,0,0,.448.2,1.927,1.927,0,0,0,.507.067,1.943,1.943,0,0,0,.5-.067,1.4,1.4,0,0,0,.444-.2l6.34-4.221V.554a.411.411,0,0,1-.126.3A.411.411,0,0,1,15.008.982Z" transform="translate(0 8.449)" fill="#ac835d"></path>
</svg>