<svg xmlns="http://www.w3.org/2000/svg" style="margin-right: 6px" width="19.298" height="19.303" viewBox="0 0 19.298 19.303">
<path d="M12.149-1.916a7.6,7.6,0,0,1-1.023-.07A8.725,8.725,0,0,1,10.072-2.2,9.91,9.91,0,0,1,9-2.55q-.541-.211-1.1-.493-.512-.26-1.016-.575T5.89-4.3Q5.4-4.66,4.926-5.068t-.92-.845q-.438-.445-.845-.92T2.393-7.8q-.36-.489-.675-1T1.143-9.806q-.282-.556-.493-1.1A10.147,10.147,0,0,1,.3-11.987,9.259,9.259,0,0,1,.083-13.04a7.23,7.23,0,0,1-.074-1.023A1.631,1.631,0,0,1,.142-14.7a3.215,3.215,0,0,1,.319-.582,4.318,4.318,0,0,1,.382-.478q.2-.211.33-.33a4.565,4.565,0,0,1,.423-.356,5.01,5.01,0,0,1,.486-.323,3.241,3.241,0,0,1,.5-.237,1.331,1.331,0,0,1,.463-.093.981.981,0,0,1,.467.145,3.144,3.144,0,0,1,.586.449q.237.222.5.519t.541.653q.082.1.3.4t.441.656a7.124,7.124,0,0,1,.4.734,1.542,1.542,0,0,1,.174.63.929.929,0,0,1-.4.742,10.127,10.127,0,0,1-.916.638q-.193.119-.386.241a3.846,3.846,0,0,0-.341.241,1.227,1.227,0,0,0-.2.193.26.26,0,0,0-.048.082A6.484,6.484,0,0,0,4.94-9.391,11.219,11.219,0,0,0,6.108-8.023,11.22,11.22,0,0,0,7.477-6.855a6.755,6.755,0,0,0,1.394.793q.015-.007.082-.052a1.074,1.074,0,0,0,.193-.2,3.846,3.846,0,0,0,.241-.341l.248-.393a9.21,9.21,0,0,1,.63-.916.935.935,0,0,1,.749-.4,1.542,1.542,0,0,1,.63.174,6.827,6.827,0,0,1,.73.4q.36.226.653.441l.4.3q.349.274.649.541A6.927,6.927,0,0,1,14.6-6a3.37,3.37,0,0,1,.441.582.97.97,0,0,1,.145.471,1.331,1.331,0,0,1-.093.463,3.241,3.241,0,0,1-.237.5,5.011,5.011,0,0,1-.323.486q-.178.237-.349.423-.119.133-.33.33a4.447,4.447,0,0,1-.482.386,3.041,3.041,0,0,1-.586.319A1.671,1.671,0,0,1,12.149-1.916ZM3.034-16.34a1.4,1.4,0,0,0-.527.193,3.993,3.993,0,0,0-.823.608,3.871,3.871,0,0,0-.667.79,1.368,1.368,0,0,0-.245.686,8.442,8.442,0,0,0,1.06,3.934A15.16,15.16,0,0,0,4.547-6.451,15.073,15.073,0,0,0,8.218-3.733a8.42,8.42,0,0,0,3.93,1.06,1.361,1.361,0,0,0,.693-.248,3.816,3.816,0,0,0,.782-.671,3.939,3.939,0,0,0,.608-.827,1.589,1.589,0,0,0,.2-.53,2.056,2.056,0,0,0-.36-.508,7.637,7.637,0,0,0-1.161-1.035q-.349-.274-.664-.482t-.564-.349a3.705,3.705,0,0,0-.423-.211,1.072,1.072,0,0,0-.248-.078s-.03.022-.074.052a1.028,1.028,0,0,0-.193.208q-.111.141-.23.326t-.237.378a9.515,9.515,0,0,1-.645.931.956.956,0,0,1-.764.412.857.857,0,0,1-.141-.011A.551.551,0,0,1,8.6-5.357a7.22,7.22,0,0,1-1.535-.86A11.975,11.975,0,0,1,5.571-7.485,11.879,11.879,0,0,1,4.306-8.972,7.5,7.5,0,0,1,3.442-10.5a.927.927,0,0,1-.03-.449,1.088,1.088,0,0,1,.393-.6,3.885,3.885,0,0,1,.434-.326q.248-.163.5-.319.185-.111.371-.23t.334-.23a1.154,1.154,0,0,0,.208-.2.4.4,0,0,0,.044-.074.758.758,0,0,0-.074-.248,4.308,4.308,0,0,0-.215-.423q-.141-.248-.349-.56t-.475-.667a8.391,8.391,0,0,0-1.038-1.157A1.689,1.689,0,0,0,3.034-16.34Z" transform="translate(-0.632 16.169) rotate(19)" fill="#ca9d75"></path>
</svg>