<svg class="qodef-svg--button-arrow-textual qodef-arrow" xmlns="http://www.w3.org/2000/svg" width="29.041" height="29.041" viewBox="0 0 29.041 29.041"><path d="M21.15168515 19.3110602a.661.661 0 0 0 .61235447.61235448.547.547 0 0 0 .56568542-.56568543l.4376991-12.45851438a.616.616 0 0 0-.64488138-.64488138l-12.46487834.49921739a.524.524 0 0 0-.56568543.56568542.661.661 0 0 0 .61235448.61235448l10.97853988-.40305087L6.4332575 21.77815576a.593.593 0 0 0 .0325269.83862865.593.593 0 0 0 .83862865.0325269L21.55544312 8.39828126Z" fill="currentColor"></path></svg>