<svg xmlns="http://www.w3.org/2000/svg" style="margin-right: 14px" width="10.568" height="17.624" viewBox="0 0 10.568 17.624">
<path d="M8.287,3.371a.445.445,0,0,1-.194-.043.413.413,0,0,1-.151-.12q-.017-.026-.237-.314t-.564-.8Q6.8,1.59,6.363.893T5.473-.656q-.267-.5-.508-.994t-.452-.985q-.211-.491-.4-.968t-.34-.942q-.189-.594-.336-1.166T3.2-6.839q-.1-.555-.146-1.084T3-8.961a5.166,5.166,0,0,1,.413-2.057A5.314,5.314,0,0,1,4.548-12.7,5.374,5.374,0,0,1,6.23-13.836a5.12,5.12,0,0,1,2.057-.417,5.12,5.12,0,0,1,2.057.417A5.374,5.374,0,0,1,12.026-12.7a5.314,5.314,0,0,1,1.132,1.682,5.166,5.166,0,0,1,.413,2.057q0,.508-.047,1.037t-.146,1.084q-.1.555-.245,1.127T12.8-4.546q-.155.465-.34.942t-.4.968q-.211.491-.452.985T11.1-.656Q10.645.2,10.21.893T9.431,2.1q-.344.508-.564.8t-.237.314a.413.413,0,0,1-.151.12A.445.445,0,0,1,8.287,3.371Zm0-16.738a4.288,4.288,0,0,0-1.712.344,4.435,4.435,0,0,0-1.4.942,4.481,4.481,0,0,0-.947,1.4,4.273,4.273,0,0,0-.349,1.717A10.865,10.865,0,0,0,4.1-6.8a17.3,17.3,0,0,0,.564,2.1q.344,1.02.762,1.945t.83,1.674q.293.559.585,1.054T7.4.888q.267.417.495.749t.392.555q.164-.232.392-.564T9.173.88q.267-.417.564-.916t.589-1.05q.4-.757.826-1.678a19.366,19.366,0,0,0,.762-1.941,17.912,17.912,0,0,0,.559-2.1,10.8,10.8,0,0,0,.219-2.156,4.273,4.273,0,0,0-.349-1.717,4.481,4.481,0,0,0-.947-1.4,4.435,4.435,0,0,0-1.4-.942A4.288,4.288,0,0,0,8.287-13.367Zm0,7.048a2.563,2.563,0,0,1-1.028-.207,2.678,2.678,0,0,1-.839-.568,2.665,2.665,0,0,1-.568-.843,2.572,2.572,0,0,1-.207-1.024,2.594,2.594,0,0,1,.207-1.033,2.614,2.614,0,0,1,.568-.839,2.715,2.715,0,0,1,.839-.564A2.563,2.563,0,0,1,8.287-11.6a2.563,2.563,0,0,1,1.028.207,2.715,2.715,0,0,1,.839.564,2.614,2.614,0,0,1,.568.839,2.594,2.594,0,0,1,.207,1.033,2.572,2.572,0,0,1-.207,1.024,2.665,2.665,0,0,1-.568.843,2.678,2.678,0,0,1-.839.568A2.563,2.563,0,0,1,8.287-6.319Zm0-4.406a1.725,1.725,0,0,0-.684.138,1.772,1.772,0,0,0-.564.379,1.785,1.785,0,0,0-.379.559,1.716,1.716,0,0,0-.138.688,1.725,1.725,0,0,0,.138.684,1.722,1.722,0,0,0,.379.559,1.872,1.872,0,0,0,.564.379,1.68,1.68,0,0,0,.684.142,1.68,1.68,0,0,0,.684-.142,1.872,1.872,0,0,0,.564-.379,1.722,1.722,0,0,0,.379-.559,1.725,1.725,0,0,0,.138-.684,1.716,1.716,0,0,0-.138-.688,1.785,1.785,0,0,0-.379-.559,1.772,1.772,0,0,0-.564-.379A1.725,1.725,0,0,0,8.287-10.725Z" transform="translate(-3.003 14.253)" fill="#ac835d"></path>
</svg>